<?xml version="1.0" ?><!DOCTYPE svg  PUBLIC '-//W3C//DTD SVG 1.1//EN' 'http://www.w3.org/Graphics/SVG/1.1/DTD/svg11.dtd'>
<svg enable-background="new 0 0 96 96" height="96px" version="1.1" viewBox="0 0 96 96" width="96px" xml:space="preserve" xmlns="http://www.w3.org/2000/svg" xmlns:xlink="http://www.w3.org/1999/xlink">
    <path transform="rotate(90 50 50)" fill="#fff" d="M71.311,80C69.67,84.66,65.23,88,60,88H20c-6.63,0-12-5.37-12-12V36c0-5.23,3.34-9.67,8-11.311V76c0,2.21,1.79,4,4,4H71.311  z"/>
    <path transform="rotate(90 50 50)" fill="#fff" d="M76,8H36c-6.63,0-12,5.37-12,12v40c0,6.63,5.37,12,12,12h40c6.63,0,12-5.37,12-12V20C88,13.37,82.63,8,76,8z M80,60  c0,2.21-1.79,4-4,4H36c-2.21,0-4-1.79-4-4V20c0-2.21,1.79-4,4-4h40c2.21,0,4,1.79,4,4V60z"/>
</svg>