<svg xmlns="http://www.w3.org/2000/svg" viewBox="0 0 141.732 141.732"><path fill="#fff" d="M120.674 125.138H20.793v16.594h99.881v-16.594zm-1.655-66.362a6.557 6.557 0 0 0-9.275 0L77.21 91.312V6.562A6.563 6.563 0 0 0 70.648 0a6.56 6.56 0 0 0-6.56 6.563v84.75L31.992 59.218a6.556 6.556 0 0 0-9.277 0 6.556 6.556 0 0 0 0 9.279l43.294 43.293c.15.154.314.299.481.438.076.062.155.113.234.176.094.065.186.142.279.206.097.063.192.114.286.174.088.054.174.105.265.153.1.056.199.1.298.147.097.045.19.091.283.132.098.04.196.072.295.105.104.038.207.078.312.109.101.03.197.052.297.077.108.023.214.058.324.078.115.021.231.033.346.054.097.015.192.032.289.042.43.042.865.042 1.295 0 .1-.01.191-.027.289-.042.114-.021.233-.029.344-.054.109-.021.217-.055.324-.078.102-.025.199-.047.299-.077.105-.031.207-.071.312-.109.102-.03.195-.062.295-.105.096-.041.191-.087.283-.132.1-.048.199-.092.297-.147.091-.048.177-.104.264-.153.098-.06.193-.11.287-.174.096-.064.189-.141.281-.206.076-.062.156-.113.233-.176.249-.204.479-.437.694-.67.076-.067.154-.131.229-.203l43.294-43.296a6.566 6.566 0 0 0 .001-9.283"/></svg>