<svg xmlns="http://www.w3.org/2000/svg" xml:space="preserve" fill-rule="evenodd" stroke-linecap="round" stroke-linejoin="round" clip-rule="evenodd" viewBox="0 0 24 24"><circle cx="12" cy="12" r="9.6" fill="none" stroke="#fff" stroke-width="1.92"/><path fill="#fff" fill-rule="nonzero" d="M.288-.659a.088.088 0 0 1-.027.065.085.085 0 0 1-.063.025.088.088 0 0 1-.063-.026.087.087 0 0 1-.027-.064c0-.025.009-.046.027-.063a.085.085 0 0 1 .063-.027c.025 0 .046.009.063.027a.083.083 0 0 1 .027.063Zm.066.541V0H.037v-.118h.078v-.275H.037v-.12h.241v.395h.076Z" transform="matrix(20 0 0 20 8.264 19.34)"/></svg>