<svg xmlns="http://www.w3.org/2000/svg" width="400" height="155.01821795296456" viewBox="0, 0, 400,155.01821795296456">
    <g>
        <path d="M172.500 0.111 C 166.519 0.748,162.270 4.402,160.612 10.333 C 160.126 12.071,159.951 66.235,160.423 68.583 C 161.585 74.360,165.936 78.506,171.617 79.251 C 174.501 79.629,225.378 79.623,228.268 79.244 C 233.979 78.496,238.445 74.228,239.432 68.577 C 239.802 66.457,239.682 12.115,239.304 10.500 C 238.130 5.484,234.535 1.819,229.454 0.459 L 228.083 0.092 200.583 0.071 C 185.458 0.059,172.821 0.077,172.500 0.111 M15.139 106.245 C -0.182 108.758,-3.041 127.673,11.133 132.746 C 12.282 133.157,13.474 133.458,16.083 133.994 C 16.908 134.163,18.365 134.463,19.320 134.660 C 24.247 135.676,26.667 137.866,26.667 141.310 C 26.667 148.829,13.834 150.363,9.177 143.401 C 8.367 142.189,7.500 139.958,7.500 139.085 C 7.500 138.422,7.296 138.444,3.660 139.490 C 1.731 140.046,0.123 140.500,0.087 140.500 C -0.600 140.500,1.584 146.118,3.035 148.083 C 9.666 157.062,26.310 157.204,32.332 148.333 C 35.948 143.006,35.386 135.976,31.000 131.667 C 28.184 128.900,25.928 127.991,17.750 126.326 C 11.646 125.083,9.917 123.650,9.917 119.833 C 9.917 113.540,18.616 110.648,24.228 115.075 C 25.377 115.981,27.000 118.657,27.000 119.646 C 27.000 120.202,27.140 120.180,30.660 119.069 C 34.645 117.811,34.229 118.063,33.979 117.062 C 32.103 109.546,23.862 104.815,15.139 106.245 M107.916 106.258 C 92.276 108.156,83.043 124.935,89.178 140.309 C 96.359 158.303,122.105 160.021,131.803 143.153 C 137.782 132.755,134.931 117.045,125.963 110.973 C 123.213 109.111,121.526 108.182,119.750 107.553 C 115.878 106.181,112.025 105.760,107.916 106.258 M273.917 106.246 C 263.122 107.595,255.069 115.712,253.655 126.667 C 251.791 141.112,260.301 153.134,273.494 154.692 C 280.604 155.532,287.180 153.163,290.449 148.584 C 290.931 147.909,290.935 147.922,291.154 150.583 C 291.259 151.867,291.386 153.123,291.436 153.375 L 291.526 153.833 294.680 153.833 L 297.833 153.833 297.833 142.000 L 297.833 130.167 286.417 130.167 L 275.000 130.167 275.000 133.665 L 275.000 137.163 282.731 137.207 L 290.462 137.250 290.154 138.463 C 287.316 149.639,270.338 151.036,264.007 140.615 C 259.796 133.683,260.766 123.088,266.100 117.768 C 273.654 110.232,287.250 112.721,290.433 122.222 C 290.755 123.182,290.545 123.200,293.800 121.935 C 295.056 121.447,296.551 120.869,297.123 120.650 C 298.349 120.182,298.353 120.374,297.066 117.728 C 293.031 109.433,284.051 104.979,273.917 106.246 M47.000 130.407 L 47.000 153.833 50.917 153.833 L 54.833 153.833 54.833 144.667 L 54.833 135.500 60.426 135.500 C 67.220 135.500,68.279 135.372,71.075 134.212 C 82.121 129.631,81.963 112.821,70.831 108.258 C 68.006 107.101,68.115 107.110,57.042 107.042 L 47.000 106.981 47.000 130.407 M140.500 110.750 L 140.500 114.500 148.083 114.500 L 155.667 114.500 155.667 134.167 L 155.667 153.833 159.667 153.833 L 163.667 153.833 163.667 134.167 L 163.667 114.500 171.250 114.500 L 178.833 114.500 178.833 110.750 L 178.833 107.000 159.667 107.000 L 140.500 107.000 140.500 110.750 M191.000 130.417 L 191.000 153.833 205.667 153.833 L 220.333 153.833 220.333 150.168 L 220.333 146.502 209.625 146.460 L 198.917 146.417 198.874 126.708 L 198.832 107.000 194.916 107.000 L 191.000 107.000 191.000 130.417 M232.500 130.417 L 232.500 153.833 236.500 153.833 L 240.500 153.833 240.500 130.417 L 240.500 107.000 236.500 107.000 L 232.500 107.000 232.500 130.417 M313.000 130.417 L 313.000 153.833 316.917 153.833 L 320.833 153.833 320.833 143.833 L 320.833 133.833 331.917 133.833 L 343.000 133.833 343.000 143.833 L 343.000 153.833 347.000 153.833 L 351.000 153.833 351.000 130.417 L 351.000 107.000 347.001 107.000 L 343.003 107.000 342.960 116.708 L 342.917 126.417 331.917 126.417 L 320.917 126.417 320.874 116.708 L 320.831 107.000 316.915 107.000 L 313.000 107.000 313.000 130.417 M361.500 110.750 L 361.500 114.500 369.083 114.500 L 376.667 114.500 376.667 134.167 L 376.667 153.833 380.667 153.833 L 384.667 153.833 384.667 134.167 L 384.667 114.500 392.250 114.500 L 399.833 114.500 399.833 110.750 L 399.833 107.000 380.667 107.000 L 361.500 107.000 361.500 110.750 M114.327 113.759 C 124.095 115.612,129.510 126.444,125.928 136.966 C 121.141 151.028,100.791 150.815,96.339 136.655 C 92.170 123.394,101.631 111.350,114.327 113.759 M65.726 114.265 C 70.463 115.491,72.656 120.331,70.491 124.781 C 68.988 127.871,66.670 128.663,59.125 128.665 L 54.833 128.667 54.833 121.333 L 54.833 114.000 59.768 114.000 C 63.738 114.000,64.902 114.052,65.726 114.265 "
              stroke="none" fill="#6c757d" fill-rule="evenodd"></path>
        <path d="M126.833 13.503 C 125.128 13.666,123.633 14.186,121.439 15.379 C 118.772 16.829,116.150 20.646,115.485 24.048 C 115.035 26.352,114.987 66.227,115.432 68.538 C 116.107 72.045,117.909 74.868,120.864 77.047 C 121.202 77.296,121.527 77.500,121.588 77.500 C 121.649 77.500,121.898 77.638,122.141 77.806 C 124.493 79.431,125.461 79.494,148.183 79.497 C 168.113 79.500,170.350 79.455,169.643 79.063 C 169.427 78.943,169.137 78.841,169.000 78.836 C 168.520 78.819,166.407 77.640,165.198 76.714 C 163.213 75.196,161.694 73.009,160.648 70.167 L 160.250 69.083 160.205 41.208 L 160.160 13.333 144.122 13.358 C 135.301 13.372,127.521 13.437,126.833 13.503 M239.798 40.948 L 239.749 68.583 239.272 70.000 C 237.779 74.433,234.806 77.520,230.667 78.933 L 229.750 79.246 230.833 79.354 C 232.709 79.540,270.937 79.514,272.583 79.326 C 278.837 78.610,283.439 74.403,284.428 68.500 C 284.781 66.392,284.781 26.224,284.428 24.250 C 284.071 22.252,283.577 20.979,282.620 19.590 C 282.364 19.220,282.027 18.730,281.870 18.503 C 280.628 16.707,277.903 14.825,275.167 13.874 L 273.917 13.439 256.882 13.376 L 239.847 13.313 239.798 40.948 "
              stroke="none" fill="#ced4da" fill-rule="evenodd"></path>
        <path d="M136.125 13.292 C 140.548 13.316,147.785 13.316,152.208 13.292 C 156.631 13.267,153.012 13.247,144.167 13.247 C 135.321 13.247,131.702 13.267,136.125 13.292 M247.625 13.292 C 252.048 13.316,259.285 13.316,263.708 13.292 C 268.131 13.267,264.512 13.247,255.667 13.247 C 246.821 13.247,243.202 13.267,247.625 13.292 M86.833 20.407 C 81.913 21.751,78.633 25.030,77.236 30.000 L 76.837 31.417 76.835 49.668 L 76.833 67.919 77.224 69.340 C 78.597 74.328,81.977 77.685,87.000 79.049 C 88.933 79.574,125.525 79.704,124.891 79.183 C 124.814 79.119,124.347 78.929,123.854 78.759 C 119.914 77.405,116.890 74.171,115.539 69.867 L 115.083 68.417 115.085 46.333 L 115.086 24.250 115.526 22.901 C 115.769 22.158,116.124 21.243,116.317 20.866 C 116.509 20.488,116.667 20.139,116.667 20.090 C 116.667 20.040,110.273 20.005,102.458 20.010 L 88.250 20.020 86.833 20.407 M283.612 20.958 C 284.842 23.721,284.750 21.666,284.750 46.250 C 284.750 71.087,284.854 69.071,283.414 72.083 C 281.891 75.270,279.013 77.814,275.667 78.932 L 274.750 79.238 276.000 79.372 C 279.065 79.702,311.491 79.416,312.833 79.048 C 318.109 77.600,321.484 74.134,322.778 68.833 C 323.289 66.739,323.245 32.195,322.729 30.241 C 321.407 25.243,317.992 21.739,313.167 20.430 L 311.583 20.000 297.384 20.000 L 283.185 20.000 283.612 20.958 M51.458 106.958 C 53.865 106.984,57.802 106.984,60.208 106.958 C 62.615 106.932,60.646 106.911,55.833 106.911 C 51.021 106.911,49.052 106.932,51.458 106.958 M150.112 106.958 C 155.353 106.983,163.978 106.983,169.279 106.958 C 174.580 106.934,170.292 106.914,159.750 106.914 C 149.208 106.914,144.871 106.934,150.112 106.958 M192.875 106.958 C 193.952 106.987,195.715 106.987,196.792 106.958 C 197.869 106.929,196.987 106.905,194.833 106.905 C 192.679 106.905,191.798 106.929,192.875 106.958 M234.635 106.958 C 235.763 106.987,237.563 106.987,238.635 106.958 C 239.706 106.929,238.783 106.905,236.583 106.905 C 234.383 106.905,233.506 106.929,234.635 106.958 M314.875 106.958 C 315.952 106.987,317.715 106.987,318.792 106.958 C 319.869 106.929,318.987 106.905,316.833 106.905 C 314.679 106.905,313.798 106.929,314.875 106.958 M345.042 106.958 C 346.119 106.987,347.881 106.987,348.958 106.958 C 350.035 106.929,349.154 106.905,347.000 106.905 C 344.846 106.905,343.965 106.929,345.042 106.958 M371.112 106.958 C 376.353 106.983,384.978 106.983,390.279 106.958 C 395.580 106.934,391.292 106.914,380.750 106.914 C 370.208 106.914,365.871 106.934,371.112 106.958 M312.914 130.500 C 312.914 143.379,312.934 148.648,312.958 142.208 C 312.982 135.769,312.982 125.231,312.958 118.792 C 312.934 112.352,312.914 117.621,312.914 130.500 M54.910 121.333 C 54.910 125.321,54.932 126.952,54.958 124.958 C 54.985 122.965,54.985 119.702,54.958 117.708 C 54.932 115.715,54.910 117.346,54.910 121.333 M54.911 144.750 C 54.911 149.792,54.932 151.878,54.958 149.387 C 54.984 146.895,54.984 142.770,54.958 140.220 C 54.932 137.670,54.911 139.708,54.911 144.750 M220.405 150.167 C 220.405 152.229,220.429 153.073,220.458 152.042 C 220.487 151.010,220.487 149.323,220.458 148.292 C 220.429 147.260,220.405 148.104,220.405 150.167 M276.625 147.618 C 276.831 147.657,277.169 147.657,277.375 147.618 C 277.581 147.578,277.412 147.545,277.000 147.545 C 276.587 147.545,276.419 147.578,276.625 147.618 "
              stroke="none" fill="#e9ecef" fill-rule="evenodd"></path>
    </g>
</svg>