<svg xmlns="http://www.w3.org/2000/svg" viewBox="0 0 512 512"><path fill="#fff" stroke="#fff" stroke-width="30" d="M340.8 98.4c50.7 0 91.9 41.3 91.9 92.3 0 26.2-10.9 49.8-28.3 66.6L256 407.1 105 254.6c-15.8-16.6-25.6-39.1-25.6-63.9 0-51 41.1-92.3 91.9-92.3 38.2 0 70.9 23.4 84.8 56.8 13.7-33.3 46.5-56.8 84.7-56.8m0-15.4C307 83 276 98.8 256 124.8c-20-26-51-41.8-84.8-41.8C112.1 83 64 131.3 64 190.7c0 27.9 10.6 54.4 29.9 74.6L245.1 418l10.9 11 10.9-11 148.3-149.8c21-20.3 32.8-47.9 32.8-77.5C448 131.3 399.9 83 340.8 83z"/></svg>